<svg width="56" height="53" viewBox="0 0 56 53" fill="none" xmlns="http://www.w3.org/2000/svg">
<g id="Vector">
<path fill-rule="evenodd" clip-rule="evenodd" d="M49.0767 20.8044C50.4 20.3168 51.8577 20.911 52.4796 22.1394L52.6079 22.434L54.5095 27.5948C56.0286 31.7174 54.0477 36.2749 50.0708 38.0077L49.6208 38.1884L13.4953 51.5C9.37268 53.0191 4.81524 51.0382 3.08241 47.0613L2.90167 46.6113L1.00001 41.4505C0.474886 40.0254 1.20447 38.4444 2.62958 37.9193C3.9529 37.4317 5.41061 38.0259 6.03255 39.2543L6.1608 39.5489L8.06245 44.7096C8.55007 46.033 9.94809 46.7566 11.2863 46.4327L11.5937 46.3392L47.7192 33.0276C49.0425 32.54 49.7661 31.142 49.4423 29.8037L49.3487 29.4964L47.4471 24.3356C46.922 22.9105 47.6515 21.3295 49.0767 20.8044ZM15.6616 0.349919C17.0867 -0.175209 18.6677 0.554371 19.1928 1.97948L28.3065 26.7125L30.4141 22.1491C31.0015 20.8761 32.4388 20.2652 33.7411 20.6793L34.0633 20.8044C35.3362 21.3918 35.9471 22.8292 35.5331 24.1315L35.408 24.4536L32.9636 29.7505L30.5193 35.0473L30.4452 35.1959L30.3226 35.4028L30.1037 35.6935L29.8636 35.9386L29.6254 36.13L29.2698 36.3461L28.9731 36.4754L28.7764 36.5398L28.436 36.614L28.1204 36.6439L27.792 36.6361L27.4907 36.5938L27.1794 36.5128C27.0739 36.4787 26.9706 36.4384 26.87 36.392L16.2764 31.5033C14.8974 30.8669 14.2953 29.2331 14.9317 27.8541C15.5191 26.5811 16.9565 25.9702 18.2587 26.3843L18.5809 26.5094L23.1457 28.6142L14.032 3.88114C13.5069 2.45603 14.2365 0.875046 15.6616 0.349919Z" fill="white" style="mix-blend-mode:screen"/>
</g>
</svg>
