<svg width="55" height="58" viewBox="0 0 55 58" fill="none" xmlns="http://www.w3.org/2000/svg">
<g id="Vector">
<path d="M32.5934 0.200782C31.7328 0.0046963 30.8341 0.057677 30.0025 0.353527C29.1709 0.649378 28.4408 1.17587 27.8974 1.87144L19.0302 13.2187L5.30293 12.1956C4.45042 12.1333 3.59724 12.3073 2.83718 12.6984C2.07711 13.0895 1.4396 13.6825 0.994721 14.4124C0.549841 15.1423 0.314822 15.9807 0.315498 16.8355C0.316174 17.6903 0.552519 18.5284 0.998553 19.2575L8.46489 31.4688L2.93125 45.071C2.60308 45.879 2.5088 46.763 2.65918 47.622C2.80957 48.481 3.19856 49.2804 3.7817 49.9288C4.36484 50.5773 5.11863 51.0486 5.95692 51.2889C6.79522 51.5293 7.68422 51.529 8.52236 51.2881L21.8131 47.4722L32.1397 56.7169C32.7904 57.2987 33.5917 57.6856 34.4519 57.8332C35.3121 57.9809 36.1966 57.8834 37.004 57.5519C37.8114 57.2203 38.5091 56.6682 39.0174 55.9587C39.5257 55.2491 39.8239 54.4108 39.878 53.5397L40.7898 38.8787L52.787 31.149C53.5059 30.6865 54.0833 30.0348 54.4559 29.2655C54.8285 28.4962 54.9817 27.6391 54.8988 26.7883C54.8158 25.9376 54.4999 25.1261 53.9858 24.4433C53.4717 23.7604 52.7792 23.2325 51.9845 22.9176L39.1769 17.8513L36.1008 3.74222C35.9127 2.87984 35.4829 2.08883 34.8618 1.46169C34.2407 0.834549 33.4539 0.397199 32.5934 0.200782V0.200782Z" fill="white" style="mix-blend-mode:screen"/>
</g>
</svg>
